<svg width="48" height="48" viewBox="0 0 48 48" fill="none" xmlns="http://www.w3.org/2000/svg">
  <rect width="48" height="48" rx="12" fill="#FF2442"/>
  <path d="M15 16.5C15 15.6716 15.6716 15 16.5 15H31.5C32.3284 15 33 15.6716 33 16.5V31.5C33 32.3284 32.3284 33 31.5 33H16.5C15.6716 33 15 32.3284 15 31.5V16.5Z" fill="white"/>
  <path d="M24 21C27.3137 21 30 23.6863 30 27C30 30.3137 27.3137 33 24 33C20.6863 33 18 30.3137 18 27C18 23.6863 20.6863 21 24 21Z" fill="white"/>
  <path d="M24 23C25.6569 23 27 24.3431 27 26C27 27.6569 25.6569 29 24 29C22.3431 29 21 27.6569 21 26C21 24.3431 22.3431 23 24 23Z" fill="#FF2442"/>
</svg>