<svg width="128" height="128" viewBox="0 0 128 128" fill="none" xmlns="http://www.w3.org/2000/svg">
  <rect width="128" height="128" rx="32" fill="#FF2442"/>
  <path d="M40 44C40 41.7909 41.7909 40 44 40H84C86.2091 40 88 41.7909 88 44V84C88 86.2091 86.2091 88 84 88H44C41.7909 88 40 86.2091 40 84V44Z" fill="white"/>
  <path d="M64 56C72.8366 56 80 63.1634 80 72C80 80.8366 72.8366 88 64 88C55.1634 88 48 80.8366 48 72C48 63.1634 55.1634 56 64 56Z" fill="white"/>
  <path d="M64 60C69.5228 60 74 64.4772 74 70C74 75.5228 69.5228 80 64 80C58.4772 80 54 75.5228 54 70C54 64.4772 58.4772 60 64 60Z" fill="#FF2442"/>
  <path d="M54 48L58 52L64 46L70 52L74 48L70 44L64 50L58 44L54 48Z" fill="white"/>
  <path d="M54 92L58 88L64 94L70 88L74 92L70 96L64 90L58 96L54 92Z" fill="white"/>
</svg>